<svg width="70" height="70" viewBox="0 0 70 70" fill="none" xmlns="http://www.w3.org/2000/svg">
<g opacity="0.5">
<path d="M20.6186 35.0015C20.6349 40.7397 19.3096 46.4023 16.7487 51.5374C16.6208 51.7946 16.4435 52.0241 16.2269 52.2128C16.0103 52.4015 15.7587 52.5457 15.4863 52.6372C15.214 52.7286 14.9264 52.7656 14.6398 52.7458C14.3532 52.7261 14.0733 52.6502 13.816 52.5223C13.5588 52.3944 13.3293 52.2171 13.1406 52.0005C12.9519 51.7839 12.8077 51.5323 12.7162 51.26C12.6248 50.9876 12.5878 50.7 12.6075 50.4134C12.6273 50.1268 12.7032 49.8469 12.8311 49.5897C15.0898 45.0592 16.2584 40.0635 16.2436 35.0012C16.2376 32.0491 16.8983 29.1336 18.1764 26.4725C19.4546 23.8114 21.3172 21.4733 23.6253 19.6327C24.0781 19.2698 24.6564 19.1016 25.2332 19.1651C25.8099 19.2287 26.3378 19.5187 26.7007 19.9715C27.0636 20.4242 27.2318 21.0026 27.1682 21.5793C27.1047 22.156 26.8146 22.6839 26.3619 23.0468C24.5663 24.4784 23.1171 26.2971 22.1227 28.3671C21.1282 30.4371 20.6141 32.705 20.6186 35.0015V35.0015ZM35.9311 32.814C35.351 32.814 34.7946 33.0445 34.3843 33.4547C33.9741 33.8649 33.7436 34.4213 33.7436 35.0015C33.7454 43.5233 31.5841 51.9061 27.4622 59.3648C27.3212 59.6161 27.2312 59.8928 27.1975 60.179C27.1637 60.4652 27.1868 60.7553 27.2655 61.0325C27.3442 61.3097 27.4769 61.5687 27.656 61.7945C27.835 62.0203 28.0569 62.2085 28.309 62.3482C28.561 62.488 28.8381 62.5766 29.1245 62.6089C29.4109 62.6413 29.7008 62.6167 29.9776 62.5366C30.2545 62.4566 30.5127 62.3226 30.7377 62.1424C30.9626 61.9622 31.1496 61.7394 31.2882 61.4866C35.7697 53.3786 38.1199 44.2657 38.1186 35.0015C38.1186 34.4213 37.8882 33.8649 37.4779 33.4547C37.0677 33.0445 36.5113 32.814 35.9311 32.814ZM35.9311 24.064C33.0313 24.0673 30.2513 25.2207 28.2008 27.2712C26.1504 29.3216 24.9969 32.1017 24.9936 35.0015C24.9936 35.5817 25.2241 36.1381 25.6343 36.5483C26.0446 36.9585 26.601 37.189 27.1811 37.189C27.7613 37.189 28.3177 36.9585 28.7279 36.5483C29.1382 36.1381 29.3686 35.5817 29.3686 35.0015C29.3686 33.261 30.06 31.5918 31.2907 30.3611C32.5214 29.1304 34.1906 28.439 35.9311 28.439C37.6716 28.439 39.3408 29.1304 40.5715 30.3611C41.8022 31.5918 42.4936 33.261 42.4936 35.0015C42.516 43.6989 40.6002 52.2921 36.8854 60.1564C36.7598 60.4166 36.687 60.6991 36.6712 60.9877C36.6554 61.2762 36.697 61.565 36.7934 61.8374C36.8899 62.1097 37.0393 62.3603 37.2331 62.5746C37.427 62.7889 37.6613 62.9627 37.9227 63.0859C38.1841 63.2091 38.4673 63.2793 38.7559 63.2925C39.0446 63.3056 39.333 63.2614 39.6045 63.1625C39.876 63.0635 40.1252 62.9118 40.3377 62.716C40.5502 62.5202 40.7218 62.2843 40.8426 62.0218C44.8335 53.5744 46.892 44.3439 46.8686 35.0012C46.8653 32.1014 45.7119 29.3214 43.6614 27.2709C41.611 25.2205 38.8309 24.0671 35.9311 24.0637V24.064ZM35.9311 6.56345C28.3916 6.57199 21.1634 9.57081 15.8322 14.902C10.501 20.2332 7.50216 27.4615 7.49362 35.0009C7.49727 37.733 7.03434 40.4457 6.12479 43.022C5.93145 43.569 5.96334 44.1704 6.21343 44.6939C6.46352 45.2174 6.91133 45.6201 7.45835 45.8135C8.00537 46.0068 8.60679 45.9749 9.1303 45.7249C9.65381 45.4748 10.0565 45.0269 10.2499 44.4799C11.3249 41.4354 11.8724 38.2297 11.8686 35.0009C11.8686 28.6192 14.4038 22.4988 18.9164 17.9862C23.429 13.4736 29.5493 10.9384 35.9311 10.9384C42.3129 10.9384 48.4333 13.4736 52.9459 17.9862C57.4585 22.4988 59.9936 28.6192 59.9936 35.0009C59.9947 39.9993 59.5103 44.986 58.5471 49.8907C58.4877 50.1741 58.4852 50.4664 58.5396 50.7507C58.594 51.035 58.7043 51.3057 58.8641 51.5471C59.0239 51.7885 59.23 51.9958 59.4705 52.1569C59.711 52.318 59.9811 52.4298 60.2652 52.4858C60.5492 52.5418 60.8415 52.5408 61.1252 52.483C61.4088 52.4251 61.6782 52.3115 61.9176 52.1488C62.1571 51.9861 62.3618 51.7775 62.52 51.535C62.6782 51.2926 62.7868 51.0211 62.8393 50.7365C63.8575 45.5532 64.3696 40.2833 64.3686 35.0009C64.3601 27.4615 61.3612 20.2332 56.03 14.902C50.6988 9.57081 43.4706 6.57199 35.9311 6.56345V6.56345ZM26.7409 41.6072C26.1724 41.4925 25.5816 41.6081 25.0982 41.9285C24.6148 42.2488 24.2782 42.7479 24.1624 43.3162C23.2762 47.6846 21.6875 51.8805 19.4582 55.7404C19.3146 55.9892 19.2214 56.2639 19.184 56.5487C19.1466 56.8336 19.1657 57.123 19.2401 57.4005C19.3146 57.6779 19.443 57.938 19.6179 58.1659C19.7929 58.3938 20.011 58.5849 20.2599 58.7285C20.5087 58.872 20.7834 58.9652 21.0682 59.0026C21.3531 59.04 21.6425 59.0209 21.92 58.9465C22.1974 58.872 22.4575 58.7437 22.6854 58.5687C22.9133 58.3937 23.1044 58.1756 23.248 57.9268C25.7134 53.6579 27.4702 49.0174 28.4499 44.186C28.5651 43.6174 28.4499 43.0264 28.1294 42.5428C27.8089 42.0593 27.3094 41.7228 26.7409 41.6075V41.6072ZM35.9311 15.3137C35.1093 15.3138 34.2882 15.3646 33.4726 15.466C33.1876 15.5016 32.9123 15.593 32.6626 15.735C32.4128 15.8769 32.1935 16.0667 32.0171 16.2934C31.6608 16.7513 31.5011 17.332 31.5729 17.9077C31.6448 18.4834 31.9424 19.007 32.4003 19.3632C32.8582 19.7195 33.4389 19.8793 34.0146 19.8074C34.6504 19.7283 35.2904 19.6887 35.9311 19.6887C39.9908 19.6933 43.883 21.308 46.7537 24.1787C49.6243 27.0493 51.2391 30.9415 51.2436 35.0012C51.2436 37.8358 51.0683 40.6676 50.7186 43.4805C50.6831 43.7656 50.704 44.0549 50.7803 44.3319C50.8565 44.6088 50.9866 44.8681 51.163 45.0948C51.3395 45.3215 51.5588 45.5113 51.8086 45.6532C52.0584 45.7951 52.3337 45.8865 52.6187 45.922C52.9038 45.9576 53.1931 45.9366 53.4701 45.8604C53.7471 45.7841 54.0063 45.6541 54.233 45.4776C54.4597 45.3012 54.6495 45.0818 54.7914 44.8321C54.9334 44.5823 55.0247 44.307 55.0603 44.0219C55.4321 41.0294 55.6186 38.0168 55.6186 35.0012C55.6128 29.7816 53.5367 24.7774 49.8458 21.0865C46.155 17.3957 41.1508 15.3196 35.9311 15.3137V15.3137ZM51.7714 50.3826C51.4931 50.3108 51.2035 50.2945 50.919 50.3347C50.6345 50.3749 50.3607 50.4708 50.1133 50.6169C49.8659 50.763 49.6497 50.9564 49.4771 51.1862C49.3045 51.4159 49.1789 51.6774 49.1075 51.9557C48.7055 53.5164 48.2478 55.0622 47.7354 56.5902C47.6416 56.8631 47.6027 57.1519 47.621 57.44C47.6393 57.728 47.7144 58.0095 47.842 58.2684C47.9696 58.5273 48.1471 58.7583 48.3644 58.9483C48.5817 59.1382 48.8345 59.2833 49.1081 59.3751C49.3817 59.4669 49.6707 59.5037 49.9586 59.4833C50.2465 59.4629 50.5275 59.3858 50.7854 59.2563C51.0434 59.1269 51.2731 58.9476 51.4615 58.729C51.6498 58.5103 51.7931 58.2565 51.8829 57.9823C52.429 56.355 52.9165 54.7087 53.3444 53.0465C53.4161 52.7683 53.4323 52.4787 53.392 52.1942C53.3517 51.9098 53.2558 51.636 53.1097 51.3887C52.9636 51.1413 52.7702 50.9251 52.5406 50.7525C52.311 50.5799 52.0496 50.4542 51.7714 50.3826V50.3826Z" fill="black"/>
</g>
</svg>
