<svg width="31" height="31" viewBox="0 0 31 31" fill="none" xmlns="http://www.w3.org/2000/svg">
<path d="M13.3092 7.8592C13.4371 8.11331 13.514 8.38905 13.5361 8.67648L14.1027 16.6805C14.1103 16.7902 14.1622 16.8924 14.2471 16.9645C14.3107 17.0185 14.3889 17.0523 14.4763 17.0622L14.5665 17.0639L22.6955 16.5742C23.3556 16.5354 24.0028 16.7651 24.4839 17.209C24.9649 17.6529 25.2371 18.2715 25.2335 18.9871C24.872 24.2553 21.0023 28.6595 15.7319 29.8011C10.4615 30.9427 5.05266 28.5483 2.4593 23.9362C1.76583 22.7472 1.29842 21.4467 1.08261 20.13L1.01353 19.6357C0.953556 19.2655 0.921309 18.8917 0.916656 18.5326L0.921197 18.1792C0.936196 12.6788 4.7981 7.92253 10.2326 6.63965L10.6056 6.5576L10.8062 6.52441C11.8571 6.38075 12.891 6.9316 13.3092 7.8592ZM11.1489 8.61393L11.0261 8.62791L10.6929 8.70318C6.36392 9.74654 3.25904 13.4734 3.0866 17.864L3.07908 18.2214C3.0687 18.4933 3.07863 18.7654 3.11143 19.0551L3.15194 19.3511C3.29683 20.5969 3.69908 21.8009 4.34249 22.9043C6.48213 26.7092 10.9306 28.6785 15.2652 27.7396C19.5998 26.8007 22.7824 23.1785 23.0772 18.9145C23.0772 18.8503 23.0503 18.7889 23.0026 18.7448C22.9707 18.7154 22.9316 18.6955 22.8901 18.6866L22.8266 18.6817L14.7111 19.1705C14.0262 19.2192 13.3497 18.9989 12.8313 18.5583C12.3129 18.1178 11.9954 17.4933 11.9493 16.8271L11.3831 8.82981C11.3821 8.81657 11.3785 8.80364 11.3537 8.75226C11.3168 8.67054 11.2365 8.61857 11.1489 8.61393ZM17.5752 0.918188C23.8248 1.09497 29.0667 5.58569 30.0694 11.6221L30.0833 11.791L30.08 12.0854C30.0449 12.5195 29.8701 12.9323 29.5794 13.264C29.2144 13.6806 28.6946 13.9376 28.1274 13.9786L18.4361 14.6105C17.1938 14.6807 16.1263 13.7574 16.0456 12.5446L15.3977 3.02998L15.4051 2.8168L15.4373 2.57659C15.5237 2.15068 15.7456 1.76158 16.0724 1.46561C16.4828 1.09394 17.0274 0.897128 17.5752 0.918188ZM17.5581 3.02981L18.1995 12.4056C18.2033 12.4626 18.2534 12.5059 18.3021 12.5031L27.9224 11.8739L27.8746 11.6114C26.9213 6.86695 22.809 3.34394 17.8752 3.04484L17.5581 3.02981Z" fill="#200E32"/>
</svg>
