<svg width="35" height="35" viewBox="0 0 35 35" fill="none" xmlns="http://www.w3.org/2000/svg">
<g opacity="0.85">
<path d="M16.9335 2.91666C24.6748 2.91666 30.9503 9.0536 30.9503 16.6239C30.9503 20.1965 29.5527 23.4499 27.2629 25.8897L31.7662 30.2803C32.1883 30.692 32.1892 31.3604 31.7681 31.7732C31.3854 32.1484 30.7857 32.1833 30.3627 31.8772L30.2415 31.7751L25.6852 27.3317C23.2869 29.2087 20.2442 30.3312 16.9335 30.3312C9.1922 30.3312 2.91666 24.1942 2.91666 16.6239C2.91666 9.0536 9.1922 2.91666 16.9335 2.91666ZM16.9335 5.02794C10.3846 5.02794 5.07563 10.2196 5.07563 16.6239C5.07563 23.0282 10.3846 28.2199 16.9335 28.2199C23.4824 28.2199 28.7913 23.0282 28.7913 16.6239C28.7913 10.2196 23.4824 5.02794 16.9335 5.02794Z" fill="#200E32"/>
</g>
</svg>
