<svg width="26" height="26" viewBox="0 0 26 26" fill="none" xmlns="http://www.w3.org/2000/svg">
<path d="M12.9998 0.500397C19.9034 0.500397 25.4998 6.09721 25.4998 13.0004C25.4998 19.9036 19.9034 25.5004 12.9998 25.5004C6.09702 25.5004 0.499786 19.9032 0.499786 13.0004C0.499786 6.09763 6.09702 0.500397 12.9998 0.500397ZM12.9998 2.3754C7.13255 2.3754 2.37479 7.13316 2.37479 13.0004C2.37479 18.8676 7.13255 23.6254 12.9998 23.6254C18.8678 23.6254 23.6248 18.8681 23.6248 13.0004C23.6248 7.13272 18.8678 2.3754 12.9998 2.3754ZM13.0062 9.19302C13.5239 9.19302 13.9437 8.77329 13.9437 8.25552C13.9437 7.7809 13.591 7.38866 13.1334 7.32658L12.9937 7.31802C12.4759 7.31802 12.0562 7.73775 12.0562 8.25552C12.0562 8.73014 12.4089 9.12238 12.8664 9.18446L13.0062 9.19302ZM12.9937 18.6828C13.4683 18.6828 13.8605 18.3301 13.9226 17.8725L13.9312 17.7453V12.2215C13.9312 11.7038 13.5114 11.284 12.9937 11.284C12.519 11.284 12.1268 11.6367 12.0647 12.0943L12.0562 12.2215V17.7453C12.0562 18.263 12.4759 18.6828 12.9937 18.6828Z" fill="#200E32"/>
</svg>
