<svg width="31" height="29" viewBox="0 0 31 29" fill="none" xmlns="http://www.w3.org/2000/svg">
<path d="M15.4998 0.645844C16.3354 0.650219 17.0967 1.12272 17.4685 1.87084L20.7658 8.49168C20.7804 8.50626 20.795 8.52084 20.8081 8.52084L28.1902 9.58543C28.7677 9.66709 29.2912 9.97043 29.6485 10.4313C30.3062 11.3121 30.2056 12.5415 29.4152 13.3042L24.0631 18.4813C24.0631 18.4813 24.0529 18.4915 24.0529 18.4958C24.0529 18.5002 24.0529 18.4958 24.0631 18.5104L25.3464 25.8167C25.5214 27.0052 24.7106 28.1165 23.5235 28.3104C23.4098 28.3265 23.2931 28.3367 23.1779 28.3367C22.8162 28.3381 22.4589 28.2492 22.1396 28.0771L15.5464 24.6354C15.526 24.634 15.5056 24.6398 15.4881 24.65L8.84978 28.1208C8.54353 28.2754 8.20228 28.3556 7.85811 28.3542C7.04144 28.3556 6.2904 27.9065 5.9054 27.1875C5.67644 26.7646 5.59332 26.2775 5.67061 25.8021L6.96998 18.525C6.96998 18.509 6.96561 18.4929 6.95394 18.4813L1.55811 13.2896C1.14832 12.89 0.917901 12.3417 0.916443 11.7686C0.916443 11.1648 1.15853 10.5858 1.58873 10.1644C1.92853 9.85814 2.34853 9.65689 2.79915 9.58105L10.1637 8.51647C10.1929 8.51647 10.2235 8.50334 10.2235 8.47272L13.5164 1.87084C13.776 1.3473 14.2325 0.950635 14.7852 0.76251C15.0156 0.68376 15.2577 0.645844 15.4998 0.645844ZM15.4998 2.77501H15.4721L15.4575 2.78522C15.4444 2.79251 15.4356 2.80418 15.4283 2.8173L12.131 9.42355C11.8131 10.0725 11.1992 10.5231 10.4846 10.634L3.14915 11.6854L3.06019 11.7146C3.04853 11.7336 3.04561 11.7525 3.04707 11.7744L8.4429 16.9515C8.95623 17.4561 9.18957 18.1808 9.06998 18.8911L7.78665 26.1536V26.1827C7.79394 26.2119 7.82019 26.2323 7.85082 26.2323H7.87415L14.4789 22.7688C14.8027 22.5967 15.1644 22.5048 15.5304 22.5048C15.8862 22.5033 16.2362 22.5908 16.5512 22.7542L23.1137 26.1813H23.1269C23.14 26.1886 23.1546 26.1944 23.1692 26.1958C23.175 26.1988 23.1808 26.1988 23.1867 26.1958H23.2173L23.2464 26.1681L21.9617 18.9042C21.8202 18.1881 22.0579 17.4502 22.5902 16.9515L27.9423 11.7613L27.9569 11.7292L27.9423 11.7161H27.9219C27.9102 11.7102 27.8971 11.7073 27.8839 11.7073L20.5019 10.634C19.7873 10.5246 19.1719 10.0725 18.8554 9.42355L15.5596 2.83334C15.561 2.82022 15.5567 2.80855 15.5479 2.7998C15.5377 2.79105 15.526 2.78814 15.5129 2.78814L15.4998 2.77501Z" fill="#200E32"/>
</svg>
