<svg width="354" height="222" viewBox="0 0 354 222" fill="none" xmlns="http://www.w3.org/2000/svg">
<g clip-path="url(#clip0_223_51)">
<g filter="url(#filter0_b_223_51)">
<rect width="353.556" height="222" rx="16.4444" fill="url(#paint0_linear_223_51)"/>
</g>
<circle cx="127.856" cy="208.022" r="97.0222" fill="#FF6969" fill-opacity="0.7"/>
<circle cx="224.467" cy="211.311" r="68.6556" fill="#FFD569" fill-opacity="0.7"/>
<circle cx="294.972" cy="62.2833" r="104.217" fill="#69FFFF" fill-opacity="0.7"/>
<circle cx="6.98891" cy="217.478" r="39.0556" fill="#844AFF"/>
<circle cx="26.3111" cy="33.7111" r="72.3556" fill="white"/>
<g filter="url(#filter1_b_223_51)">
<rect width="353.556" height="222" rx="16.4444" fill="url(#paint1_linear_223_51)" fill-opacity="0.7"/>
</g>
<path d="M34.9445 33.9166C33.0013 33.9166 31.2385 33.1472 29.943 31.8938C30.7851 31.1942 31.7304 30.9721 32.7579 30.8932C33.1964 30.8595 33.5965 30.8538 34.0179 30.8478C34.2689 30.8441 34.5275 30.8404 34.8063 30.8306C35.4891 30.8067 36.2487 30.7442 36.9513 30.4795C37.6282 30.2245 38.2061 29.8823 38.7181 29.5445C38.9801 29.3717 39.1901 29.2253 39.3887 29.0869C39.6293 28.9191 39.8532 28.7631 40.1324 28.5858C40.7343 28.2038 41.3307 27.9067 42.0602 27.7899C41.5444 31.2569 38.555 33.9166 34.9445 33.9166ZM41.084 22.9695C41.5872 23.7906 41.93 24.7202 42.0692 25.7159C40.8257 25.8464 39.8658 26.3204 39.0309 26.8503C38.757 27.0242 38.4354 27.2466 38.1383 27.452C37.935 27.5925 37.7433 27.7251 37.5862 27.8287C37.1319 28.1284 36.699 28.3779 36.2265 28.556C35.8548 28.696 35.3783 28.7538 34.7342 28.7764C34.541 28.7831 34.3217 28.7866 34.0878 28.7903C33.6194 28.7976 33.0927 28.8059 32.6006 28.8437C31.3382 28.9406 29.9443 29.2428 28.6829 30.2681C28.1613 29.3494 27.8365 28.3049 27.765 27.1905C28.9538 26.2728 30.113 26.0859 31.2756 26.0786C31.6967 26.076 32.0489 26.0937 32.4184 26.1123C32.6901 26.126 32.9712 26.1402 33.2958 26.147C33.9714 26.1613 34.7215 26.1335 35.4433 25.8851C36.5099 25.5181 37.4001 24.8459 38.1216 24.3011C38.3211 24.1504 38.5077 24.0095 38.6816 23.8875C39.4125 23.3746 40.1153 23.0056 41.084 22.9695ZM31.2628 24.0231C30.2669 24.0293 29.1767 24.1511 28.0558 24.6405C28.9486 21.6821 31.6949 19.5277 34.9445 19.5277C36.6802 19.5277 38.2725 20.1419 39.516 21.1665C38.7319 21.4094 38.0816 21.7973 37.5008 22.205C37.2076 22.4107 36.9475 22.6061 36.7046 22.7885C36.0396 23.2881 35.5039 23.6904 34.7745 23.9414C34.4056 24.0684 33.9525 24.1049 33.3393 24.0919C33.1434 24.0878 32.9014 24.0765 32.6383 24.0642C32.1994 24.0436 31.7021 24.0204 31.2628 24.0231Z" stroke="white" stroke-width="2.05556"/>
<path d="M46.4197 17.8896C46.1436 18.1524 45.6836 18.4849 45.1336 18.8025C44.5836 19.12 44.0658 19.3521 43.7002 19.4598C43.6187 19.3531 43.5505 19.2357 43.498 19.1102C43.774 18.8474 44.234 18.5149 44.7841 18.1973C45.334 17.8798 45.8518 17.6477 46.2174 17.54C46.2989 17.6467 46.3671 17.7641 46.4197 17.8896ZM46.2626 17.3994C45.9497 17.0291 45.4817 16.7938 44.9588 16.7938C44.0166 16.7938 43.2527 17.5577 43.2527 18.5C43.2527 18.7032 43.2883 18.8982 43.3535 19.0791C43.2664 19.1674 43.1986 19.2498 43.1564 19.3226C43.1125 19.3982 43.0833 19.4858 43.1253 19.5585C43.1672 19.6312 43.2578 19.6498 43.3453 19.6495C43.4295 19.6493 43.5348 19.6318 43.655 19.6004C43.9679 19.9707 44.4359 20.2061 44.9588 20.2061C45.9011 20.2061 46.6649 19.4422 46.6649 18.5C46.6649 18.2967 46.6294 18.1016 46.5641 17.9207C46.6513 17.8324 46.719 17.75 46.7613 17.6772C46.8052 17.6016 46.8344 17.5139 46.7924 17.4413C46.7504 17.3686 46.6599 17.35 46.5724 17.3502C46.4881 17.3505 46.3828 17.368 46.2626 17.3994Z" fill="white" stroke="white" stroke-width="0.123333"/>
<g filter="url(#filter2_b_223_51)">
<path d="M41.1628 82.6333C41.1628 79.0005 44.1115 76.0556 47.7488 76.0556H80.6791C84.3164 76.0556 87.2651 79.0005 87.2651 82.6333V102.367C87.2651 105.999 84.3164 108.944 80.6791 108.944H47.7488C44.1115 108.944 41.1628 105.999 41.1628 102.367V82.6333Z" fill="#232323" fill-opacity="0.3"/>
<path d="M47.7488 76.4667H80.6791C84.0899 76.4667 86.854 79.2281 86.854 82.6333V102.367C86.854 105.772 84.0899 108.533 80.6791 108.533H47.7488C44.338 108.533 41.5739 105.772 41.5739 102.367V82.6333C41.5739 79.2281 44.338 76.4667 47.7488 76.4667Z" stroke="#232323" stroke-opacity="0.3" stroke-width="0.822222"/>
</g>
<path d="M52.2768 76.8778H53.1V108.122H52.2768V98.2556H41.9861V97.4333H52.2768V87.5667H41.9861V86.7445H52.2768V76.8778Z" fill="#232323" fill-opacity="0.3"/>
<path d="M75.7396 97.4333H86.4419V98.2556H75.7396V108.122H74.9163V91.6778C74.9163 88.9532 77.1278 86.7445 79.8558 86.7445H86.4419V87.5667H79.8558C77.5825 87.5667 75.7396 89.4073 75.7396 91.6778V97.4333Z" fill="#232323" fill-opacity="0.3"/>
<path d="M75.7396 76.8778H74.9163V83.4556H75.7396V76.8778Z" fill="#232323" fill-opacity="0.3"/>
<path fill-rule="evenodd" clip-rule="evenodd" d="M69.9768 92.5C69.9768 95.6787 67.3967 98.2556 64.214 98.2556C61.0313 98.2556 58.4512 95.6787 58.4512 92.5C58.4512 89.3213 61.0313 86.7445 64.214 86.7445C67.3967 86.7445 69.9768 89.3213 69.9768 92.5ZM69.1535 92.5C69.1535 95.2246 66.942 97.4333 64.214 97.4333C61.486 97.4333 59.2745 95.2246 59.2745 92.5C59.2745 89.7754 61.486 87.5667 64.214 87.5667C66.942 87.5667 69.1535 89.7754 69.1535 92.5Z" fill="#232323" fill-opacity="0.3"/>
<path d="M298.266 43.0022C298.595 43.4133 298.842 43.9066 299.007 44.4C299.171 44.8933 299.254 45.4689 299.254 46.0444C299.254 46.62 299.171 47.1955 299.007 47.6889C298.842 48.1822 298.595 48.6755 298.266 49.0866C297.854 49.6622 297.936 50.4844 298.513 50.8955C299.089 51.3066 299.912 51.2244 300.324 50.6489C300.818 49.9911 301.147 49.3333 301.476 48.5111C301.806 47.6889 301.888 46.8666 301.888 46.0444C301.888 45.2222 301.723 44.4 301.476 43.5777C301.229 42.8377 300.818 42.0977 300.324 41.44C299.912 40.8644 299.089 40.7822 298.513 41.1933C297.936 41.6044 297.854 42.4266 298.266 43.0022Z" fill="#232323"/>
<path d="M302.794 40.6177C303.781 42.18 304.358 44.0711 304.358 46.0444C304.358 48.0177 303.781 49.9088 302.794 51.4711C302.382 52.0466 302.629 52.8688 303.205 53.28C303.864 53.6911 304.605 53.4444 305.016 52.8688C306.251 50.8955 306.992 48.5933 306.992 46.0444C306.992 43.5777 306.251 41.1933 305.016 39.22C304.605 38.6444 303.781 38.3977 303.205 38.8088C302.629 39.22 302.382 39.96 302.794 40.6177Z" fill="#232323"/>
<path d="M307.568 38.1511C308.968 40.4533 309.709 43.1666 309.709 46.0444C309.709 48.9222 308.886 51.6355 307.568 53.9377C307.239 54.5955 307.404 55.3355 308.062 55.7466C308.721 56.0755 309.462 55.9111 309.874 55.2533C311.52 52.54 312.426 49.4155 312.426 46.0444C312.426 42.6733 311.52 39.5489 309.874 36.8355C309.544 36.1777 308.721 36.0133 308.062 36.3422C307.404 36.7533 307.239 37.4933 307.568 38.1511Z" fill="#232323"/>
<path d="M312.343 35.6844C314.072 38.7266 315.142 42.2622 315.142 46.0444C315.142 49.8266 314.154 53.3622 312.343 56.4044C312.014 57.0622 312.179 57.8022 312.837 58.2133C313.496 58.5422 314.237 58.3777 314.648 57.72C316.624 54.2666 317.777 50.32 317.777 46.0444C317.777 41.7689 316.624 37.8222 314.648 34.3689C314.319 33.7111 313.496 33.5466 312.837 33.8755C312.179 34.2044 312.014 35.0266 312.343 35.6844Z" fill="#232323"/>
<g filter="url(#filter3_b_223_51)">
<ellipse cx="293.22" cy="180.582" rx="15.34" ry="15.34" fill="#232323" fill-opacity="0.3"/>
</g>
<g filter="url(#filter4_b_223_51)">
<path d="M327.582 180.582C327.582 189.054 320.714 195.922 312.242 195.922C303.77 195.922 296.902 189.054 296.902 180.582C296.902 172.11 303.77 165.242 312.242 165.242C320.714 165.242 327.582 172.11 327.582 180.582Z" fill="#232323" fill-opacity="0.7"/>
</g>
<g filter="url(#filter5_b_223_51)">
<path d="M302.731 168.545C299.18 171.355 296.902 175.702 296.902 180.582C296.902 185.462 299.18 189.809 302.731 192.619C306.282 189.809 308.561 185.462 308.561 180.582C308.561 175.702 306.282 171.355 302.731 168.545Z" fill="#232323" fill-opacity="0.6"/>
</g>
</g>
<rect x="1.02778" y="1.02778" width="351.944" height="219.944" rx="28.9722" stroke="url(#paint2_linear_223_51)" stroke-width="2.05556"/>
<defs>
<filter id="filter0_b_223_51" x="-61.6667" y="-61.6667" width="476.889" height="345.333" filterUnits="userSpaceOnUse" color-interpolation-filters="sRGB">
<feFlood flood-opacity="0" result="BackgroundImageFix"/>
<feGaussianBlur in="BackgroundImageFix" stdDeviation="30.8333"/>
<feComposite in2="SourceAlpha" operator="in" result="effect1_backgroundBlur_223_51"/>
<feBlend mode="normal" in="SourceGraphic" in2="effect1_backgroundBlur_223_51" result="shape"/>
</filter>
<filter id="filter1_b_223_51" x="-102.778" y="-102.778" width="559.111" height="427.556" filterUnits="userSpaceOnUse" color-interpolation-filters="sRGB">
<feFlood flood-opacity="0" result="BackgroundImageFix"/>
<feGaussianBlur in="BackgroundImageFix" stdDeviation="51.3889"/>
<feComposite in2="SourceAlpha" operator="in" result="effect1_backgroundBlur_223_51"/>
<feBlend mode="normal" in="SourceGraphic" in2="effect1_backgroundBlur_223_51" result="shape"/>
</filter>
<filter id="filter2_b_223_51" x="30.885" y="65.7778" width="66.6579" height="53.4444" filterUnits="userSpaceOnUse" color-interpolation-filters="sRGB">
<feFlood flood-opacity="0" result="BackgroundImageFix"/>
<feGaussianBlur in="BackgroundImageFix" stdDeviation="5.13889"/>
<feComposite in2="SourceAlpha" operator="in" result="effect1_backgroundBlur_223_51"/>
<feBlend mode="normal" in="SourceGraphic" in2="effect1_backgroundBlur_223_51" result="shape"/>
</filter>
<filter id="filter3_b_223_51" x="257.325" y="144.687" width="71.791" height="71.791" filterUnits="userSpaceOnUse" color-interpolation-filters="sRGB">
<feFlood flood-opacity="0" result="BackgroundImageFix"/>
<feGaussianBlur in="BackgroundImageFix" stdDeviation="10.2778"/>
<feComposite in2="SourceAlpha" operator="in" result="effect1_backgroundBlur_223_51"/>
<feBlend mode="normal" in="SourceGraphic" in2="effect1_backgroundBlur_223_51" result="shape"/>
</filter>
<filter id="filter4_b_223_51" x="276.347" y="144.687" width="71.791" height="71.791" filterUnits="userSpaceOnUse" color-interpolation-filters="sRGB">
<feFlood flood-opacity="0" result="BackgroundImageFix"/>
<feGaussianBlur in="BackgroundImageFix" stdDeviation="10.2778"/>
<feComposite in2="SourceAlpha" operator="in" result="effect1_backgroundBlur_223_51"/>
<feBlend mode="normal" in="SourceGraphic" in2="effect1_backgroundBlur_223_51" result="shape"/>
</filter>
<filter id="filter5_b_223_51" x="276.347" y="147.99" width="52.7695" height="65.1842" filterUnits="userSpaceOnUse" color-interpolation-filters="sRGB">
<feFlood flood-opacity="0" result="BackgroundImageFix"/>
<feGaussianBlur in="BackgroundImageFix" stdDeviation="10.2778"/>
<feComposite in2="SourceAlpha" operator="in" result="effect1_backgroundBlur_223_51"/>
<feBlend mode="normal" in="SourceGraphic" in2="effect1_backgroundBlur_223_51" result="shape"/>
</filter>
<linearGradient id="paint0_linear_223_51" x1="-2.63419e-06" y1="111" x2="353.556" y2="111" gradientUnits="userSpaceOnUse">
<stop stop-color="#DC9FD9"/>
<stop offset="1" stop-color="#FFBAC7" stop-opacity="0.26"/>
</linearGradient>
<linearGradient id="paint1_linear_223_51" x1="-2.63419e-06" y1="111" x2="353.556" y2="111" gradientUnits="userSpaceOnUse">
<stop stop-color="#DC9FD9"/>
<stop offset="1" stop-color="#FFBAC7" stop-opacity="0.26"/>
</linearGradient>
<linearGradient id="paint2_linear_223_51" x1="-2.63751e-06" y1="111" x2="354" y2="111" gradientUnits="userSpaceOnUse">
<stop stop-color="white" stop-opacity="0.8"/>
<stop offset="1" stop-color="white" stop-opacity="0.1"/>
</linearGradient>
<clipPath id="clip0_223_51">
<rect width="354" height="222" rx="30" fill="white"/>
</clipPath>
</defs>
</svg>
