<svg width="25" height="31" viewBox="0 0 25 31" fill="none" xmlns="http://www.w3.org/2000/svg">
<path d="M16.3033 26.7155C16.7358 27.0677 16.8043 27.7082 16.4564 28.146C16.1991 28.4697 15.9019 28.7595 15.5869 28.9969C14.5258 29.8296 13.1767 30.2071 11.8369 30.0475C10.4959 29.8878 9.27271 29.2029 8.43793 28.1422C8.09203 27.7027 8.16358 27.0626 8.59775 26.7125C9.03191 26.3623 9.66428 26.4348 10.0102 26.8743C10.5136 27.5139 11.2556 27.9294 12.0718 28.0266C12.8892 28.1239 13.7115 27.8938 14.3704 27.3771C14.5647 27.2305 14.7393 27.0602 14.8901 26.8705C15.238 26.4327 15.8707 26.3633 16.3033 26.7155ZM2.51351 11.1246L2.53146 10.2557C2.54429 9.88406 2.56416 9.53905 2.59331 9.20142C3.03037 4.48167 7.53531 0.916687 12.4486 0.916687H12.5527C17.4633 0.916687 21.9696 4.47918 22.4216 9.20784C22.4475 9.50843 22.4586 9.77545 22.462 10.1509L22.4633 11.2998C22.4644 11.4044 22.4662 11.4964 22.4689 11.5822L22.4823 11.8684L22.5473 12.1413C22.7525 12.9013 23.1131 13.6118 23.607 14.2287L23.8268 14.4872L23.9167 14.6027C24.5091 15.4879 24.8475 16.518 24.8958 17.6273L24.8944 18.2155C24.8531 19.5294 24.3707 20.7983 23.4868 21.8557C22.3162 23.0981 20.7299 23.8699 19.044 24.025C14.6904 24.4978 10.2979 24.4978 5.95639 24.0263C4.25889 23.863 2.6773 23.0935 1.45549 21.8034C0.554518 20.705 0.0755949 19.322 0.105475 17.9244L0.106708 17.5769C0.15876 16.5143 0.495043 15.4852 1.08031 14.5961L1.17827 14.4701C1.86181 13.7208 2.32912 12.8036 2.53189 11.8149L2.50995 11.9037L2.51351 11.1246ZM12.5527 2.95157H12.4486C8.51366 2.95157 4.92837 5.78878 4.59535 9.3849C4.5783 9.58251 4.5647 9.78638 4.55408 10.0009L4.53066 10.6811L4.52115 12.0217L4.50016 12.2285C4.22313 13.5794 3.58561 14.8305 2.65521 15.8506L2.72706 15.7673L2.59856 15.9799C2.35784 16.4137 2.20255 16.8847 2.14119 17.3495L2.11571 17.6273L2.11548 17.9463C2.09578 18.875 2.40958 19.7812 2.95329 20.4482C3.79201 21.3311 4.92661 21.8832 6.15869 22.0018C10.3698 22.459 14.6185 22.459 18.8457 22.0001C20.0645 21.8879 21.1983 21.3362 21.9914 20.4972C22.5916 19.7774 22.9088 18.8683 22.8856 17.9115L22.8868 17.6731C22.856 16.9854 22.6369 16.3185 22.2524 15.7438L22.2746 15.7808L22.0735 15.545C21.3803 14.6893 20.8766 13.6968 20.5962 12.6329L20.5016 12.2307L20.4828 12.0956C20.4686 11.8981 20.4604 11.7227 20.456 11.5117L20.452 10.1924C20.4493 9.85692 20.4402 9.63108 20.4198 9.39437C20.0751 5.78862 16.4865 2.95157 12.5527 2.95157Z" fill="#413250"/>
</svg>
