<svg width="31" height="27" viewBox="0 0 31 27" fill="none" xmlns="http://www.w3.org/2000/svg">
<path d="M22.0852 0.375C27.1148 0.375 30.0834 3.2692 30.0834 8.22346H23.913V8.27401C21.0493 8.27401 18.7278 10.5374 18.7278 13.3294C18.7278 16.1214 21.0493 18.3848 23.913 18.3848H30.0834V18.8397C30.0834 23.7308 27.1148 26.625 22.0852 26.625H8.91484C3.88521 26.625 0.916687 23.7308 0.916687 18.8397V8.16027C0.916687 3.2692 3.88521 0.375 8.91484 0.375H22.0852ZM28.9945 10.3973C29.5958 10.3973 30.0834 10.8726 30.0834 11.4589V15.1493C30.0764 15.7328 29.5929 16.2041 28.9945 16.2109H24.0297C22.5799 16.23 21.3122 15.2622 20.9834 13.8855C20.8187 13.0308 21.0499 12.149 21.6149 11.4762C22.18 10.8033 23.0211 10.4084 23.913 10.3973H28.9945ZM24.613 12.1035H24.1334C23.8389 12.1001 23.5553 12.2118 23.3458 12.4136C23.1364 12.6154 23.0185 12.8906 23.0185 13.1777C23.0185 13.7801 23.5156 14.2703 24.1334 14.2773H24.613C25.2287 14.2773 25.7278 13.7906 25.7278 13.1904C25.7278 12.5901 25.2287 12.1035 24.613 12.1035ZM16.0574 6.04965H7.82595C7.21528 6.04961 6.71823 6.52858 6.71113 7.12392C6.71113 7.72628 7.20816 8.21654 7.82595 8.22346H16.0574C16.6731 8.22346 17.1722 7.73684 17.1722 7.13656C17.1722 6.53627 16.6731 6.04965 16.0574 6.04965Z" fill="#200E32"/>
</svg>
