<svg width="25" height="31" viewBox="0 0 25 31" fill="none" xmlns="http://www.w3.org/2000/svg">
<path d="M9.33553 19.6138C11.441 19.428 13.5587 19.428 15.6642 19.6138L16.3364 19.6707C17.256 19.7613 18.169 19.9032 19.0674 20.095C21.3575 20.5668 23.0205 21.4037 23.7566 22.9561C24.3034 24.111 24.3034 25.4518 23.7563 26.6073C23.0184 28.1636 21.334 29.0075 19.0845 29.4512L18.403 29.5927C17.4921 29.7676 16.5735 29.8869 15.661 29.9493C13.9488 30.0951 12.2286 30.1217 10.5692 30.0304C10.3863 30.0304 10.2635 30.0298 10.1554 30.0272L9.94498 30.0194C9.68921 30.0063 9.45487 29.9795 9.35655 29.9507C8.2021 29.8722 7.05533 29.7051 5.95522 29.4569L5.58206 29.379C3.49892 28.9162 1.95621 28.0811 1.24261 26.6056C0.97235 26.0331 0.832561 25.4072 0.833372 24.779C0.831024 24.1461 0.971954 23.5211 1.25226 22.9373C1.99545 21.4446 3.74155 20.5463 5.92412 20.0968C7.05493 19.8544 8.20135 19.6925 9.33553 19.6138ZM15.4802 21.7169C13.4971 21.5419 11.5026 21.5419 9.50015 21.7184C8.44531 21.7918 7.39694 21.9398 6.3547 22.1632C4.74053 22.4957 3.50639 23.1306 3.13926 23.8677C3.00407 24.1494 2.93443 24.4583 2.93558 24.7764C2.93519 25.0963 3.00577 25.4122 3.13789 25.6922C3.51547 26.4729 4.68003 27.0564 6.38634 27.3908L6.90043 27.4997C7.76142 27.6703 8.64818 27.788 9.63365 27.8624C9.7581 27.8874 9.89239 27.9028 10.0517 27.9109L10.6257 27.9207C12.2448 28.0083 13.8679 27.9832 15.5006 27.8444C16.553 27.7722 17.5984 27.6205 18.6535 27.3851L18.9816 27.3156C20.48 26.9758 21.5168 26.4198 21.8581 25.7001C22.1333 25.1188 22.1333 24.444 21.8583 23.8632C21.4931 23.093 20.3387 22.5121 18.6377 22.1616C17.6029 21.9407 16.554 21.7926 15.4987 21.7183L15.4802 21.7169ZM12.5063 0.916656C16.7851 0.916656 20.2537 4.40009 20.2537 8.69712C20.2537 12.9941 16.7851 16.4776 12.5063 16.4776C8.22749 16.4776 4.75884 12.9941 4.75884 8.69712C4.75884 4.40009 8.22749 0.916656 12.5063 0.916656ZM12.5063 3.02784C9.38851 3.02784 6.86107 5.56606 6.86107 8.69712C6.86107 11.8282 9.38851 14.3664 12.5063 14.3664C15.624 14.3664 18.1515 11.8282 18.1515 8.69712C18.1515 5.56606 15.624 3.02784 12.5063 3.02784Z" fill="#200E32"/>
</svg>
