<svg width="35" height="35" viewBox="0 0 35 35" fill="none" xmlns="http://www.w3.org/2000/svg">
<g opacity="0.8">
<path d="M17.2095 3.00007C21.3716 3.00007 24.7665 6.29105 24.9336 10.4122L24.9401 10.7308L24.9411 13.0293C27.5314 13.9289 29.3906 16.3909 29.3906 19.288V25.5428C29.3906 29.2016 26.4251 32.1666 22.7669 32.1666H11.6238C7.96548 32.1666 5 29.2016 5 25.5428V19.288C5 16.3904 6.85997 13.928 9.45101 13.0288L9.45113 10.6969C9.46982 6.42689 12.9451 2.98155 17.2095 3.00007ZM22.7669 14.8518H11.6238C9.17351 14.8518 7.1875 16.8374 7.1875 19.288V25.5428C7.1875 27.9934 9.17351 29.9791 11.6238 29.9791H22.7669C25.2171 29.9791 27.2031 27.9934 27.2031 25.5428V19.288C27.2031 16.8374 25.2171 14.8518 22.7669 14.8518ZM17.1956 19.7024C17.7493 19.7024 18.2069 20.1138 18.2794 20.6477L18.2894 20.7961V24.0351C18.2894 24.6391 17.7997 25.1288 17.1956 25.1288C16.6419 25.1288 16.1843 24.7173 16.1118 24.1835L16.1019 24.0351V20.7961C16.1019 20.192 16.5915 19.7024 17.1956 19.7024ZM17.2047 5.18764C14.2393 5.17471 11.8083 7.49255 11.6471 10.4168L11.6386 10.7017L11.6383 12.6629H22.7523L22.7526 10.7308C22.7526 7.67009 20.2702 5.18765 17.2047 5.18764Z" fill="#200E32"/>
</g>
</svg>
